<svg xmlns="http://www.w3.org/2000/svg" width="16" height="16" viewBox="0 0 16 16">
  <path fill="#424242" d="M8 2.5c-.4 0-.8.1-1.1.3L3.2 5.1c-.7.4-1.2 1.2-1.2 2v1.8c0 .8.5 1.6 1.2 2l3.7 2.3c.6.4 1.4.4 2.2 0l3.7-2.3c.7-.4 1.2-1.2 1.2-2V7.1c0-.8-.5-1.6-1.2-2L9.1 2.8c-.3-.2-.7-.3-1.1-.3z"/>
  <path fill="#ffffff" d="M8 4c-2.2 0-4 1.8-4 4s1.8 4 4 4 4-1.8 4-4-1.8-4-4-4zm1.7 2.3L8 8l1.7 1.7c.1.1.1.3 0 .4-.1.1-.3.1-.4 0L8 8.4l-1.3 1.3c-.1.1-.3.1-.4 0-.1-.1-.1-.3 0-.4L8 8 6.3 6.3c-.1-.1-.1-.3 0-.4.1-.1.3-.1.4 0L8 7.6l1.3-1.3c.1-.1.3-.1.4 0 .1.1.1.3 0 .4z"/>
</svg>